<svg xmlns="http://www.w3.org/2000/svg" width="30" height="30" viewBox="0 0 30 30">
    <path fill="#161514" fill-rule="evenodd" d="M14.999 0C6.717 0 0 6.697 0 14.959c0 6.609 4.298 12.215 10.258 14.193.75.137 1.024-.325 1.024-.721 0-.355-.013-1.296-.02-2.544-4.172.904-5.053-2.005-5.053-2.005-.682-1.729-1.666-2.189-1.666-2.189-1.362-.927.104-.909.104-.909 1.505.106 2.297 1.542 2.297 1.542 1.338 2.286 3.511 1.625 4.366 1.242.136-.966.524-1.625.952-1.999-3.33-.377-6.833-1.66-6.833-7.393 0-1.632.585-2.968 1.545-4.013-.155-.379-.67-1.9.147-3.96 0 0 1.259-.401 4.124 1.534A14.405 14.405 0 0 1 15 7.233a14.42 14.42 0 0 1 3.756.504c2.863-1.935 4.12-1.533 4.12-1.533.819 2.059.304 3.58.15 3.959.962 1.045 1.542 2.38 1.542 4.013 0 5.747-3.508 7.011-6.848 7.381.537.462 1.017 1.375 1.017 2.77 0 2-.018 3.613-.018 4.104 0 .4.27.866 1.031.72C25.706 27.168 30 21.566 30 14.959 30 6.697 23.283 0 14.999 0"/>
</svg>
