<svg xmlns="http://www.w3.org/2000/svg" width="30" height="30" viewBox="0 0 30 30">
    <g fill="none" fill-rule="nonzero">
        <path fill="#ECB32D" d="M19.341 1.976A2.673 2.673 0 0 0 16 .268a2.673 2.673 0 0 0-1.707 3.342l6.853 21.073a2.645 2.645 0 0 0 3.22 1.634c1.414-.415 2.268-1.902 1.805-3.268 0-.049-6.83-21.073-6.83-21.073z"/>
        <path fill="#63C1A0" d="M8.732 5.415A2.673 2.673 0 0 0 5.39 3.707 2.673 2.673 0 0 0 3.683 7.05l6.854 21.073a2.645 2.645 0 0 0 3.22 1.634c1.414-.415 2.267-1.902 1.804-3.268 0-.049-6.83-21.073-6.83-21.073z"/>
        <path fill="#E01A59" d="M27.976 19.415a2.673 2.673 0 0 0 1.707-3.342 2.673 2.673 0 0 0-3.342-1.707L5.244 21.244a2.645 2.645 0 0 0-1.634 3.22c.414 1.414 1.902 2.268 3.268 1.804.049 0 21.098-6.853 21.098-6.853z"/>
        <path fill="#331433" d="M9.634 25.39c1.366-.439 3.146-1.024 5.049-1.634-.44-1.366-1.024-3.146-1.634-5.049L8 20.341l1.634 5.05z"/>
        <path fill="#D62027" d="M20.268 21.927c1.903-.61 3.683-1.195 5.05-1.634-.44-1.366-1.025-3.147-1.635-5.05l-5.049 1.635 1.634 5.049z"/>
        <path fill="#89D3DF" d="M24.512 8.805a2.673 2.673 0 0 0 1.708-3.342 2.673 2.673 0 0 0-3.342-1.707L1.805 10.61A2.645 2.645 0 0 0 .17 13.83c.414 1.414 1.902 2.268 3.268 1.804.049 0 21.073-6.83 21.073-6.83z"/>
        <path fill="#258B74" d="M6.195 14.756c1.366-.439 3.146-1.024 5.049-1.634-.61-1.902-1.195-3.683-1.634-5.049L4.56 9.707l1.634 5.05z"/>
        <path fill="#819C3C" d="M16.805 11.317c1.902-.61 3.683-1.195 5.049-1.634C21.244 7.78 20.659 6 20.22 4.634l-5.05 1.634 1.635 5.05z"/>
    </g>
</svg>
