<svg xmlns="http://www.w3.org/2000/svg" width="30" height="24" viewBox="0 0 30 24">
    <path fill="#39A0CD" fill-rule="evenodd" d="M30 2.841c-1.104.482-2.29.808-3.535.954A6.096 6.096 0 0 0 29.171.443a12.44 12.44 0 0 1-3.908 1.47A6.192 6.192 0 0 0 20.77 0c-3.399 0-6.155 2.713-6.155 6.059 0 .474.055.937.16 1.38A17.566 17.566 0 0 1 2.089 1.11a5.959 5.959 0 0 0-.834 3.046c0 2.102 1.087 3.957 2.738 5.043a6.205 6.205 0 0 1-2.787-.758l-.001.076c0 2.936 2.122 5.385 4.937 5.941a6.253 6.253 0 0 1-2.78.104c.784 2.407 3.057 4.159 5.75 4.208a12.473 12.473 0 0 1-7.644 2.594c-.497 0-.986-.03-1.468-.085A17.623 17.623 0 0 0 9.435 24c11.32 0 17.512-9.232 17.512-17.239 0-.263-.006-.524-.018-.784A12.4 12.4 0 0 0 30 2.841"/>
</svg>
